<svg width="1600" height="420" viewBox="0 0 1600 420" xmlns="http://www.w3.org/2000/svg">
  <defs>
    <linearGradient id="wallGlow" x1="0%" y1="0%" x2="0%" y2="100%">
      <stop offset="0%" stop-color="#f4d680" stop-opacity="0.58"/>
      <stop offset="100%" stop-color="#7f5926" stop-opacity="0.18"/>
    </linearGradient>
  </defs>
  <rect width="1600" height="420" fill="none"/>
  <g fill="url(#wallGlow)" stroke="#e0b969" stroke-opacity="0.36" stroke-width="2">
    <path d="M0 328H182V288H214V248H264V288H298V328H480V300H528V224H600V176H692V116H814V176H894V232H970V296H1036V328H1212V274H1270V206H1354V258H1402V328H1600V420H0Z"/>
    <path d="M560 224V328H886V232H832V176H740V146H672V176H616V224Z" fill="none" stroke-opacity="0.52"/>
    <path d="M76 328V232H118V194H160V232H182" fill="none"/>
    <path d="M1270 206V328H1354V258" fill="none"/>
  </g>
  <g stroke="#f2d27d" stroke-opacity="0.42" stroke-width="2" fill="none">
    <path d="M694 114V52H810V114"/>
    <path d="M720 52V22H784V52"/>
    <path d="M732 146H772"/>
    <path d="M686 176H818"/>
    <path d="M590 256H852"/>
    <path d="M68 270H170"/>
    <path d="M1228 286H1390"/>
  </g>
  <g fill="#f2d27d" fill-opacity="0.36">
    <rect x="714" y="74" width="16" height="16"/>
    <rect x="770" y="74" width="16" height="16"/>
    <rect x="546" y="258" width="18" height="18"/>
    <rect x="574" y="258" width="18" height="18"/>
    <rect x="604" y="258" width="18" height="18"/>
    <rect x="836" y="258" width="18" height="18"/>
    <rect x="866" y="258" width="18" height="18"/>
    <rect x="896" y="258" width="18" height="18"/>
    <rect x="102" y="256" width="16" height="16"/>
    <rect x="136" y="256" width="16" height="16"/>
    <rect x="1292" y="260" width="16" height="16"/>
    <rect x="1324" y="260" width="16" height="16"/>
  </g>
</svg>
