<svg width="640" height="640" viewBox="0 0 640 640" xmlns="http://www.w3.org/2000/svg">
  <defs>
    <radialGradient id="sealGlow" cx="50%" cy="50%" r="50%">
      <stop offset="0%" stop-color="#f6dc97" stop-opacity="0.36"/>
      <stop offset="100%" stop-color="#c58d39" stop-opacity="0"/>
    </radialGradient>
  </defs>
  <circle cx="320" cy="320" r="320" fill="url(#sealGlow)"/>
  <g fill="none" stroke="#f2cf7d" stroke-opacity="0.5">
    <circle cx="320" cy="320" r="228" stroke-width="3"/>
    <circle cx="320" cy="320" r="192" stroke-width="2"/>
    <circle cx="320" cy="320" r="150" stroke-width="1.6"/>
    <path d="M320 72V568M72 320H568M144 144L496 496M496 144L144 496" stroke-width="1.4" stroke-opacity="0.28"/>
    <path d="M222 210H418L482 320L418 430H222L158 320Z" stroke-width="2.2"/>
    <path d="M320 180L364 260H454L390 322L420 414L320 364L220 414L250 322L186 260H276Z" stroke-width="2.2"/>
    <path d="M320 128L344 168L320 208L296 168Z" stroke-width="1.6"/>
    <path d="M320 432L344 472L320 512L296 472Z" stroke-width="1.6"/>
    <path d="M128 320L168 296L208 320L168 344Z" stroke-width="1.6"/>
    <path d="M432 320L472 296L512 320L472 344Z" stroke-width="1.6"/>
  </g>
  <g fill="#f2cf7d" fill-opacity="0.42">
    <circle cx="320" cy="320" r="12"/>
    <circle cx="320" cy="180" r="7"/>
    <circle cx="320" cy="460" r="7"/>
    <circle cx="180" cy="320" r="7"/>
    <circle cx="460" cy="320" r="7"/>
  </g>
</svg>
